<?xml version="1.0" encoding="UTF-8"?>
<svg xmlns="http://www.w3.org/2000/svg" xmlns:xlink="http://www.w3.org/1999/xlink" viewBox="0 0 50 50" width="50px" height="50px">
<g id="surface214628334">
<path style=" stroke:none;fill-rule:nonzero;fill:rgb(94.509804%,76.862746%,5.882353%);fill-opacity:1;" d="M 24.996094 2 C 24.972656 2 24.949219 2 24.929688 2.003906 C 24.914062 2.003906 24.902344 2.007812 24.886719 2.007812 C 24.863281 2.011719 24.835938 2.015625 24.808594 2.019531 C 24.777344 2.027344 24.746094 2.035156 24.710938 2.042969 C 24.683594 2.050781 24.652344 2.0625 24.621094 2.074219 C 24.621094 2.074219 24.617188 2.078125 24.613281 2.078125 C 24.605469 2.082031 24.59375 2.085938 24.585938 2.089844 C 24.574219 2.09375 24.566406 2.101562 24.554688 2.105469 C 24.375 2.195312 24.222656 2.335938 24.125 2.511719 L 24.230469 2.300781 L 4.476562 14.40625 C 4.179688 14.589844 4 14.910156 4 15.257812 L 4 34.769531 C 4 35.113281 4.179688 35.4375 4.476562 35.621094 L 10.476562 39.296875 C 10.785156 39.488281 11.171875 39.496094 11.488281 39.316406 C 11.804688 39.140625 12 38.804688 12 38.441406 L 12 19.175781 L 25 11.210938 L 38 19.175781 L 38 38.441406 C 38 38.804688 38.195312 39.140625 38.511719 39.316406 C 38.828125 39.496094 39.214844 39.488281 39.523438 39.296875 L 45.523438 35.621094 C 45.820312 35.4375 46 35.113281 46 34.769531 L 46 15.257812 C 46 14.910156 45.820312 14.589844 45.523438 14.40625 L 25.574219 2.179688 L 25.570312 2.179688 C 25.53125 2.152344 25.488281 2.128906 25.445312 2.105469 C 25.417969 2.09375 25.390625 2.078125 25.363281 2.070312 C 25.359375 2.066406 25.355469 2.066406 25.351562 2.066406 C 25.351562 2.0625 25.347656 2.0625 25.34375 2.058594 C 25.316406 2.050781 25.285156 2.042969 25.257812 2.035156 C 25.226562 2.027344 25.195312 2.019531 25.164062 2.015625 C 25.164062 2.015625 25.160156 2.015625 25.160156 2.011719 C 25.15625 2.011719 25.15625 2.011719 25.152344 2.011719 C 25.128906 2.007812 25.105469 2.007812 25.082031 2.003906 C 25.066406 2.003906 25.050781 2.003906 25.03125 2.003906 C 25.019531 2 25.007812 2 24.992188 2 Z M 24.109375 3.449219 C 24.191406 3.617188 24.324219 3.757812 24.480469 3.855469 L 24.949219 4.144531 L 24.554688 4.339844 Z M 25.890625 3.449219 L 25.445312 4.339844 L 25.050781 4.144531 L 25.515625 3.855469 C 25.675781 3.757812 25.808594 3.617188 25.890625 3.449219 Z M 24.550781 3.894531 C 24.820312 4.03125 25.136719 4.035156 25.410156 3.914062 L 25 4.121094 Z M 25 4.175781 L 44 15.820312 L 44 34.207031 L 40 36.660156 L 40 18.617188 C 40 18.269531 39.820312 17.949219 39.523438 17.765625 L 25.523438 9.183594 C 25.203125 8.988281 24.796875 8.988281 24.476562 9.183594 L 10.476562 17.765625 C 10.179688 17.949219 10 18.269531 10 18.617188 L 10 36.660156 L 6 34.207031 L 6 15.820312 Z M 21.972656 16.957031 C 21.796875 16.964844 21.625 17.015625 21.476562 17.105469 L 15.476562 20.78125 C 15.179688 20.964844 15 21.289062 15 21.632812 L 15 41.507812 C 15 41.855469 15.179688 42.179688 15.480469 42.363281 L 24.332031 47.785156 L 24.222656 47.636719 C 24.316406 47.757812 24.4375 47.859375 24.578125 47.929688 C 24.636719 47.960938 24.699219 47.984375 24.761719 48 C 24.796875 48.007812 24.828125 48.015625 24.863281 48.019531 C 24.890625 48.027344 24.917969 48.027344 24.945312 48.03125 C 24.949219 48.03125 24.957031 48.03125 24.960938 48.035156 C 24.964844 48.035156 24.96875 48.035156 24.972656 48.035156 C 24.992188 48.035156 25.007812 48.035156 25.027344 48.035156 C 25.042969 48.035156 25.0625 48.035156 25.078125 48.035156 C 25.09375 48.03125 25.109375 48.03125 25.128906 48.027344 C 25.148438 48.027344 25.171875 48.023438 25.195312 48.019531 C 25.226562 48.015625 25.257812 48.007812 25.292969 47.996094 C 25.320312 47.988281 25.351562 47.980469 25.382812 47.964844 C 25.382812 47.964844 25.382812 47.964844 25.386719 47.964844 C 25.386719 47.964844 25.386719 47.964844 25.390625 47.964844 C 25.414062 47.953125 25.441406 47.941406 25.46875 47.929688 C 25.648438 47.839844 25.800781 47.699219 25.898438 47.523438 L 25.792969 47.730469 L 34.523438 42.359375 C 34.820312 42.175781 35 41.855469 35 41.507812 L 35 21.632812 C 35 21.289062 34.820312 20.964844 34.523438 20.78125 L 28.523438 17.105469 C 28.214844 16.917969 27.828125 16.90625 27.511719 17.085938 C 27.195312 17.261719 27 17.59375 27 17.957031 L 27 37.613281 L 25.023438 38.824219 L 23 37.582031 L 23 17.957031 C 23 17.6875 22.890625 17.429688 22.695312 17.242188 C 22.503906 17.050781 22.242188 16.949219 21.972656 16.957031 Z M 21 19.746094 L 21 38.144531 C 21 38.492188 21.179688 38.816406 21.480469 39 L 24.5 40.851562 C 24.820312 41.046875 25.222656 41.046875 25.542969 40.851562 L 28.523438 39.027344 C 28.820312 38.84375 29 38.519531 29 38.171875 L 29 19.746094 L 33 22.195312 L 33 40.949219 L 25.019531 45.859375 L 17 40.949219 L 17 22.195312 Z M 24.578125 45.691406 L 24.972656 45.890625 L 24.503906 46.179688 C 24.359375 46.265625 24.242188 46.390625 24.160156 46.535156 Z M 25.320312 45.769531 L 25.816406 46.433594 C 25.742188 46.332031 25.648438 46.242188 25.539062 46.179688 L 25.070312 45.890625 Z M 25.023438 45.917969 L 25.472656 46.140625 C 25.199219 46.003906 24.878906 46 24.601562 46.128906 Z M 25.023438 45.917969 "/>
</g>
</svg>
